solid OpenSCAD_Model
  facet normal 0 0 -1
    outer loop
      vertex -2.5 0 0
      vertex -2.48029 0.313333 0
      vertex -2.48029 -0.313333 0
    endloop
  endfacet
  facet normal 0 0 -1
    outer loop
      vertex -2.48029 -0.313333 0
      vertex -2.48029 0.313333 0
      vertex -2.42146 0.621725 0
    endloop
  endfacet
  facet normal 0 0 -1
    outer loop
      vertex -2.48029 -0.313333 0
      vertex -2.42146 0.621725 0
      vertex -2.32444 0.920311 0
    endloop
  endfacet
  facet normal 0 0 -1
    outer loop
      vertex -2.48029 -0.313333 0
      vertex -2.32444 0.920311 0
      vertex -2.19077 1.20438 0
    endloop
  endfacet
  facet normal 0 0 -1
    outer loop
      vertex -2.48029 -0.313333 0
      vertex -2.19077 1.20438 0
      vertex -2.02254 1.46946 0
    endloop
  endfacet
  facet normal 0 0 -1
    outer loop
      vertex -2.48029 -0.313333 0
      vertex -2.02254 1.46946 0
      vertex -1.82242 1.71137 0
    endloop
  endfacet
  facet normal 0 0 -1
    outer loop
      vertex -2.48029 -0.313333 0
      vertex -1.82242 1.71137 0
      vertex -1.59356 1.92628 0
    endloop
  endfacet
  facet normal 0 0 -1
    outer loop
      vertex -2.48029 -0.313333 0
      vertex -1.59356 1.92628 0
      vertex -1.33957 2.11082 0
    endloop
  endfacet
  facet normal 0 0 -1
    outer loop
      vertex -2.48029 -0.313333 0
      vertex -1.33957 2.11082 0
      vertex -1.06445 2.26207 0
    endloop
  endfacet
  facet normal 0 0 -1
    outer loop
      vertex -2.48029 -0.313333 0
      vertex -1.06445 2.26207 0
      vertex -0.772542 2.37764 0
    endloop
  endfacet
  facet normal 0 0 -1
    outer loop
      vertex -2.48029 -0.313333 0
      vertex -0.772542 2.37764 0
      vertex -0.468453 2.45572 0
    endloop
  endfacet
  facet normal 0 0 -1
    outer loop
      vertex -2.48029 -0.313333 0
      vertex -0.468453 2.45572 0
      vertex -0.156976 2.49507 0
    endloop
  endfacet
  facet normal 0 0 -1
    outer loop
      vertex -2.48029 -0.313333 0
      vertex -0.156976 2.49507 0
      vertex 0.156976 2.49507 0
    endloop
  endfacet
  facet normal 0 0 -1
    outer loop
      vertex -0.80374 1.26649 0
      vertex 0.156976 2.49507 0
      vertex 0.468453 2.45572 0
    endloop
  endfacet
  facet normal 0 0 -1
    outer loop
      vertex -0.463525 1.42659 0
      vertex 0.468453 2.45572 0
      vertex 0.772542 2.37764 0
    endloop
  endfacet
  facet normal 0 0 -1
    outer loop
      vertex -0.094186 1.49704 0
      vertex 0.772542 2.37764 0
      vertex 1.06445 2.26207 0
    endloop
  endfacet
  facet normal 0 0 -1
    outer loop
      vertex 0.281072 1.47343 0
      vertex 1.06445 2.26207 0
      vertex 1.33957 2.11082 0
    endloop
  endfacet
  facet normal 0 0 -1
    outer loop
      vertex 0.463525 1.42659 0
      vertex 1.33957 2.11082 0
      vertex 1.59356 1.92628 0
    endloop
  endfacet
  facet normal 0 0 -1
    outer loop
      vertex 0.80374 1.26649 0
      vertex 1.59356 1.92628 0
      vertex 1.82242 1.71137 0
    endloop
  endfacet
  facet normal 0 0 -1
    outer loop
      vertex 0.956136 1.15577 0
      vertex 1.82242 1.71137 0
      vertex 2.02254 1.46946 0
    endloop
  endfacet
  facet normal 0 0 -1
    outer loop
      vertex 1.09345 1.02682 0
      vertex 2.02254 1.46946 0
      vertex 2.19077 1.20438 0
    endloop
  endfacet
  facet normal 0 0 -1
    outer loop
      vertex 1.31446 0.722631 0
      vertex 2.19077 1.20438 0
      vertex 2.32444 0.920311 0
    endloop
  endfacet
  facet normal 0 0 -1
    outer loop
      vertex 1.39467 0.552187 0
      vertex 2.32444 0.920311 0
      vertex 2.42146 0.621725 0
    endloop
  endfacet
  facet normal 0 0 -1
    outer loop
      vertex 1.48817 0.188 0
      vertex 2.42146 0.621725 0
      vertex 2.48029 0.313333 0
    endloop
  endfacet
  facet normal 0 0 -1
    outer loop
      vertex 1.5 0 0
      vertex 2.48029 0.313333 0
      vertex 2.5 0 0
    endloop
  endfacet
  facet normal 0 0 -1
    outer loop
      vertex 1.48817 -0.188 0
      vertex 2.5 0 0
      vertex 2.48029 -0.313333 0
    endloop
  endfacet
  facet normal 0 0 -1
    outer loop
      vertex 1.39467 -0.552187 0
      vertex 2.48029 -0.313333 0
      vertex 2.42146 -0.621725 0
    endloop
  endfacet
  facet normal 0 0 -1
    outer loop
      vertex 1.31446 -0.722631 0
      vertex 2.42146 -0.621725 0
      vertex 2.32444 -0.920311 0
    endloop
  endfacet
  facet normal 0 0 -1
    outer loop
      vertex 1.21353 -0.881678 0
      vertex 2.32444 -0.920311 0
      vertex 2.19077 -1.20438 0
    endloop
  endfacet
  facet normal 0 0 -1
    outer loop
      vertex 0.956136 -1.15577 0
      vertex 2.19077 -1.20438 0
      vertex 2.02254 -1.46946 0
    endloop
  endfacet
  facet normal 0 0 -1
    outer loop
      vertex 0.80374 -1.26649 0
      vertex 2.02254 -1.46946 0
      vertex 1.82242 -1.71137 0
    endloop
  endfacet
  facet normal 0 0 -1
    outer loop
      vertex 0.463525 -1.42659 0
      vertex 1.82242 -1.71137 0
      vertex 1.59356 -1.92628 0
    endloop
  endfacet
  facet normal 0 0 -1
    outer loop
      vertex 0.094186 -1.49704 0
      vertex 1.59356 -1.92628 0
      vertex 1.33957 -2.11082 0
    endloop
  endfacet
  facet normal 0 0 -1
    outer loop
      vertex -0.281072 -1.47343 0
      vertex 1.33957 -2.11082 0
      vertex 1.06445 -2.26207 0
    endloop
  endfacet
  facet normal 0 0 -1
    outer loop
      vertex -0.638669 -1.35724 0
      vertex 1.06445 -2.26207 0
      vertex 0.772542 -2.37764 0
    endloop
  endfacet
  facet normal 0 0 -1
    outer loop
      vertex -2.48029 -0.313333 0
      vertex 0.772542 -2.37764 0
      vertex 0.468453 -2.45572 0
    endloop
  endfacet
  facet normal 0 0 -1
    outer loop
      vertex -2.48029 -0.313333 0
      vertex 0.468453 -2.45572 0
      vertex 0.156976 -2.49507 0
    endloop
  endfacet
  facet normal 0 0 -1
    outer loop
      vertex -2.48029 -0.313333 0
      vertex 0.156976 -2.49507 0
      vertex -0.156976 -2.49507 0
    endloop
  endfacet
  facet normal 0 0 -1
    outer loop
      vertex -2.48029 -0.313333 0
      vertex -0.156976 -2.49507 0
      vertex -0.468453 -2.45572 0
    endloop
  endfacet
  facet normal 0 0 -1
    outer loop
      vertex -2.48029 -0.313333 0
      vertex -0.468453 -2.45572 0
      vertex -0.772542 -2.37764 0
    endloop
  endfacet
  facet normal 0 0 -1
    outer loop
      vertex -2.48029 -0.313333 0
      vertex -0.772542 -2.37764 0
      vertex -1.06445 -2.26207 0
    endloop
  endfacet
  facet normal 0 0 -1
    outer loop
      vertex -2.48029 -0.313333 0
      vertex -1.06445 -2.26207 0
      vertex -1.33957 -2.11082 0
    endloop
  endfacet
  facet normal 0 0 -1
    outer loop
      vertex -2.48029 -0.313333 0
      vertex -1.33957 -2.11082 0
      vertex -1.59356 -1.92628 0
    endloop
  endfacet
  facet normal 0 0 -1
    outer loop
      vertex -2.48029 -0.313333 0
      vertex -1.59356 -1.92628 0
      vertex -1.82242 -1.71137 0
    endloop
  endfacet
  facet normal 0 0 -1
    outer loop
      vertex -2.48029 -0.313333 0
      vertex -1.82242 -1.71137 0
      vertex -2.02254 -1.46946 0
    endloop
  endfacet
  facet normal 0 0 -1
    outer loop
      vertex -2.48029 -0.313333 0
      vertex -2.02254 -1.46946 0
      vertex -2.19077 -1.20438 0
    endloop
  endfacet
  facet normal 0 0 -1
    outer loop
      vertex -2.48029 -0.313333 0
      vertex -2.19077 -1.20438 0
      vertex -2.32444 -0.920311 0
    endloop
  endfacet
  facet normal 0 0 -1
    outer loop
      vertex -2.48029 -0.313333 0
      vertex -2.32444 -0.920311 0
      vertex -2.42146 -0.621725 0
    endloop
  endfacet
  facet normal 0 0 -1
    outer loop
      vertex -1.48817 -0.188 0
      vertex -2.48029 -0.313333 0
      vertex -1.5 0 0
    endloop
  endfacet
  facet normal 0 0 -1
    outer loop
      vertex -1.45287 -0.373035 0
      vertex -2.48029 -0.313333 0
      vertex -1.48817 -0.188 0
    endloop
  endfacet
  facet normal 0 0 -1
    outer loop
      vertex -1.39467 -0.552187 0
      vertex -2.48029 -0.313333 0
      vertex -1.45287 -0.373035 0
    endloop
  endfacet
  facet normal 0 0 -1
    outer loop
      vertex -1.31446 -0.722631 0
      vertex -2.48029 -0.313333 0
      vertex -1.39467 -0.552187 0
    endloop
  endfacet
  facet normal 0 0 -1
    outer loop
      vertex -1.21353 -0.881678 0
      vertex -2.48029 -0.313333 0
      vertex -1.31446 -0.722631 0
    endloop
  endfacet
  facet normal 0 0 -1
    outer loop
      vertex -1.09345 -1.02682 0
      vertex -2.48029 -0.313333 0
      vertex -1.21353 -0.881678 0
    endloop
  endfacet
  facet normal 0 0 -1
    outer loop
      vertex -0.956136 -1.15577 0
      vertex -2.48029 -0.313333 0
      vertex -1.09345 -1.02682 0
    endloop
  endfacet
  facet normal 0 0 -1
    outer loop
      vertex -0.638669 -1.35724 0
      vertex 0.772542 -2.37764 0
      vertex -0.80374 -1.26649 0
    endloop
  endfacet
  facet normal 0 0 -1
    outer loop
      vertex -2.48029 -0.313333 0
      vertex -0.956136 -1.15577 0
      vertex -0.80374 -1.26649 0
    endloop
  endfacet
  facet normal 0 0 -1
    outer loop
      vertex -2.48029 -0.313333 0
      vertex -0.80374 -1.26649 0
      vertex 0.772542 -2.37764 0
    endloop
  endfacet
  facet normal 0 0 -1
    outer loop
      vertex -0.463525 -1.42659 0
      vertex 1.06445 -2.26207 0
      vertex -0.638669 -1.35724 0
    endloop
  endfacet
  facet normal 0 0 -1
    outer loop
      vertex -0.281072 -1.47343 0
      vertex 1.06445 -2.26207 0
      vertex -0.463525 -1.42659 0
    endloop
  endfacet
  facet normal 0 0 -1
    outer loop
      vertex -0.094186 -1.49704 0
      vertex 1.33957 -2.11082 0
      vertex -0.281072 -1.47343 0
    endloop
  endfacet
  facet normal 0 0 -1
    outer loop
      vertex 0.094186 -1.49704 0
      vertex 1.33957 -2.11082 0
      vertex -0.094186 -1.49704 0
    endloop
  endfacet
  facet normal 0 0 -1
    outer loop
      vertex 0.281072 -1.47343 0
      vertex 1.59356 -1.92628 0
      vertex 0.094186 -1.49704 0
    endloop
  endfacet
  facet normal 0 0 -1
    outer loop
      vertex 0.463525 -1.42659 0
      vertex 1.59356 -1.92628 0
      vertex 0.281072 -1.47343 0
    endloop
  endfacet
  facet normal 0 0 -1
    outer loop
      vertex 0.638669 -1.35724 0
      vertex 1.82242 -1.71137 0
      vertex 0.463525 -1.42659 0
    endloop
  endfacet
  facet normal 0 0 -1
    outer loop
      vertex 0.80374 -1.26649 0
      vertex 1.82242 -1.71137 0
      vertex 0.638669 -1.35724 0
    endloop
  endfacet
  facet normal 0 0 -1
    outer loop
      vertex 1.09345 -1.02682 0
      vertex 2.19077 -1.20438 0
      vertex 0.956136 -1.15577 0
    endloop
  endfacet
  facet normal 0 0 -1
    outer loop
      vertex 1.21353 -0.881678 0
      vertex 2.19077 -1.20438 0
      vertex 1.09345 -1.02682 0
    endloop
  endfacet
  facet normal 0 0 -1
    outer loop
      vertex 0.956136 -1.15577 0
      vertex 2.02254 -1.46946 0
      vertex 0.80374 -1.26649 0
    endloop
  endfacet
  facet normal 0 0 -1
    outer loop
      vertex 1.45287 -0.373035 0
      vertex 2.48029 -0.313333 0
      vertex 1.39467 -0.552187 0
    endloop
  endfacet
  facet normal 0 0 -1
    outer loop
      vertex 1.48817 -0.188 0
      vertex 2.48029 -0.313333 0
      vertex 1.45287 -0.373035 0
    endloop
  endfacet
  facet normal 0 0 -1
    outer loop
      vertex 1.39467 -0.552187 0
      vertex 2.42146 -0.621725 0
      vertex 1.31446 -0.722631 0
    endloop
  endfacet
  facet normal 0 0 -1
    outer loop
      vertex 1.48817 0.188 0
      vertex 2.48029 0.313333 0
      vertex 1.5 0 0
    endloop
  endfacet
  facet normal 0 0 -1
    outer loop
      vertex 1.45287 0.373035 0
      vertex 2.42146 0.621725 0
      vertex 1.48817 0.188 0
    endloop
  endfacet
  facet normal 0 0 -1
    outer loop
      vertex 1.5 0 0
      vertex 2.5 0 0
      vertex 1.48817 -0.188 0
    endloop
  endfacet
  facet normal 0 0 -1
    outer loop
      vertex 1.31446 -0.722631 0
      vertex 2.32444 -0.920311 0
      vertex 1.21353 -0.881678 0
    endloop
  endfacet
  facet normal 0 0 -1
    outer loop
      vertex 1.21353 0.881678 0
      vertex 2.19077 1.20438 0
      vertex 1.31446 0.722631 0
    endloop
  endfacet
  facet normal 0 0 -1
    outer loop
      vertex 1.09345 1.02682 0
      vertex 2.19077 1.20438 0
      vertex 1.21353 0.881678 0
    endloop
  endfacet
  facet normal 0 0 -1
    outer loop
      vertex 1.31446 0.722631 0
      vertex 2.32444 0.920311 0
      vertex 1.39467 0.552187 0
    endloop
  endfacet
  facet normal 0 0 -1
    outer loop
      vertex 0.638669 1.35724 0
      vertex 1.59356 1.92628 0
      vertex 0.80374 1.26649 0
    endloop
  endfacet
  facet normal 0 0 -1
    outer loop
      vertex 1.39467 0.552187 0
      vertex 2.42146 0.621725 0
      vertex 1.45287 0.373035 0
    endloop
  endfacet
  facet normal 0 0 -1
    outer loop
      vertex 0.281072 1.47343 0
      vertex 1.33957 2.11082 0
      vertex 0.463525 1.42659 0
    endloop
  endfacet
  facet normal 0 0 -1
    outer loop
      vertex 0.094186 1.49704 0
      vertex 1.06445 2.26207 0
      vertex 0.281072 1.47343 0
    endloop
  endfacet
  facet normal 0 0 -1
    outer loop
      vertex -0.094186 1.49704 0
      vertex 1.06445 2.26207 0
      vertex 0.094186 1.49704 0
    endloop
  endfacet
  facet normal 0 0 -1
    outer loop
      vertex -0.281072 1.47343 0
      vertex 0.772542 2.37764 0
      vertex -0.094186 1.49704 0
    endloop
  endfacet
  facet normal 0 0 -1
    outer loop
      vertex -0.463525 1.42659 0
      vertex 0.772542 2.37764 0
      vertex -0.281072 1.47343 0
    endloop
  endfacet
  facet normal 0 0 -1
    outer loop
      vertex -0.638669 1.35724 0
      vertex 0.468453 2.45572 0
      vertex -0.463525 1.42659 0
    endloop
  endfacet
  facet normal 0 0 -1
    outer loop
      vertex -0.80374 1.26649 0
      vertex 0.468453 2.45572 0
      vertex -0.638669 1.35724 0
    endloop
  endfacet
  facet normal 0 0 -1
    outer loop
      vertex -0.956136 1.15577 0
      vertex 0.156976 2.49507 0
      vertex -0.80374 1.26649 0
    endloop
  endfacet
  facet normal 0 0 -1
    outer loop
      vertex -1.21353 0.881678 0
      vertex -2.48029 -0.313333 0
      vertex -1.09345 1.02682 0
    endloop
  endfacet
  facet normal 0 0 -1
    outer loop
      vertex -1.09345 1.02682 0
      vertex 0.156976 2.49507 0
      vertex -0.956136 1.15577 0
    endloop
  endfacet
  facet normal 0 0 -1
    outer loop
      vertex -2.48029 -0.313333 0
      vertex 0.156976 2.49507 0
      vertex -1.09345 1.02682 0
    endloop
  endfacet
  facet normal 0 0 -1
    outer loop
      vertex -1.31446 0.722631 0
      vertex -2.48029 -0.313333 0
      vertex -1.21353 0.881678 0
    endloop
  endfacet
  facet normal 0 0 -1
    outer loop
      vertex -1.39467 0.552187 0
      vertex -2.48029 -0.313333 0
      vertex -1.31446 0.722631 0
    endloop
  endfacet
  facet normal 0 0 -1
    outer loop
      vertex -1.45287 0.373035 0
      vertex -2.48029 -0.313333 0
      vertex -1.39467 0.552187 0
    endloop
  endfacet
  facet normal 0 0 -1
    outer loop
      vertex -1.48817 0.188 0
      vertex -2.48029 -0.313333 0
      vertex -1.45287 0.373035 0
    endloop
  endfacet
  facet normal 0 0 -1
    outer loop
      vertex -1.5 0 0
      vertex -2.48029 -0.313333 0
      vertex -1.48817 0.188 0
    endloop
  endfacet
  facet normal 0 0 -1
    outer loop
      vertex 0.463525 1.42659 0
      vertex 1.59356 1.92628 0
      vertex 0.638669 1.35724 0
    endloop
  endfacet
  facet normal 0 0 -1
    outer loop
      vertex 0.80374 1.26649 0
      vertex 1.82242 1.71137 0
      vertex 0.956136 1.15577 0
    endloop
  endfacet
  facet normal 0 0 -1
    outer loop
      vertex 0.956136 1.15577 0
      vertex 2.02254 1.46946 0
      vertex 1.09345 1.02682 0
    endloop
  endfacet
  facet normal -0.998027 0.0627898 0
    outer loop
      vertex -2.5 0 0
      vertex -2.5 0 23.4
      vertex -2.48029 0.313333 0
    endloop
  endfacet
  facet normal -0.998027 0.0627898 0
    outer loop
      vertex -2.48029 0.313333 0
      vertex -2.5 0 23.4
      vertex -2.48029 0.313333 23.4
    endloop
  endfacet
  facet normal -0.998027 -0.0627898 0
    outer loop
      vertex -2.5 0 0
      vertex -2.48029 -0.313333 0
      vertex -2.5 0 23.4
    endloop
  endfacet
  facet normal -0.998027 -0.0627898 0
    outer loop
      vertex -2.5 0 23.4
      vertex -2.48029 -0.313333 0
      vertex -2.48029 -0.313333 23.4
    endloop
  endfacet
  facet normal -0.982287 -0.187382 0
    outer loop
      vertex -2.48029 -0.313333 0
      vertex -2.42146 -0.621725 0
      vertex -2.48029 -0.313333 23.4
    endloop
  endfacet
  facet normal -0.982287 -0.187382 0
    outer loop
      vertex -2.48029 -0.313333 23.4
      vertex -2.42146 -0.621725 0
      vertex -2.42146 -0.621725 23.4
    endloop
  endfacet
  facet normal -0.951056 -0.309019 0
    outer loop
      vertex -2.42146 -0.621725 0
      vertex -2.32444 -0.920311 0
      vertex -2.42146 -0.621725 23.4
    endloop
  endfacet
  facet normal -0.951056 -0.309019 0
    outer loop
      vertex -2.42146 -0.621725 23.4
      vertex -2.32444 -0.920311 0
      vertex -2.32444 -0.920311 23.4
    endloop
  endfacet
  facet normal -0.904828 -0.425778 0
    outer loop
      vertex -2.32444 -0.920311 0
      vertex -2.19077 -1.20438 0
      vertex -2.32444 -0.920311 23.4
    endloop
  endfacet
  facet normal -0.904828 -0.425778 0
    outer loop
      vertex -2.32444 -0.920311 23.4
      vertex -2.19077 -1.20438 0
      vertex -2.19077 -1.20438 23.4
    endloop
  endfacet
  facet normal -0.844327 -0.535829 0
    outer loop
      vertex -2.19077 -1.20438 0
      vertex -2.02254 -1.46946 0
      vertex -2.19077 -1.20438 23.4
    endloop
  endfacet
  facet normal -0.844327 -0.535829 0
    outer loop
      vertex -2.19077 -1.20438 23.4
      vertex -2.02254 -1.46946 0
      vertex -2.02254 -1.46946 23.4
    endloop
  endfacet
  facet normal -0.770515 -0.637422 0
    outer loop
      vertex -2.02254 -1.46946 0
      vertex -1.82242 -1.71137 0
      vertex -2.02254 -1.46946 23.4
    endloop
  endfacet
  facet normal -0.770515 -0.637422 0
    outer loop
      vertex -2.02254 -1.46946 23.4
      vertex -1.82242 -1.71137 0
      vertex -1.82242 -1.71137 23.4
    endloop
  endfacet
  facet normal -0.684546 -0.72897 0
    outer loop
      vertex -1.82242 -1.71137 23.4
      vertex -1.82242 -1.71137 0
      vertex -1.59356 -1.92628 0
    endloop
  endfacet
  facet normal -0.684546 -0.72897 0
    outer loop
      vertex -1.59356 -1.92628 23.4
      vertex -1.82242 -1.71137 23.4
      vertex -1.59356 -1.92628 0
    endloop
  endfacet
  facet normal -0.587786 -0.809017 0
    outer loop
      vertex -1.59356 -1.92628 23.4
      vertex -1.59356 -1.92628 0
      vertex -1.33957 -2.11082 0
    endloop
  endfacet
  facet normal -0.587786 -0.809017 0
    outer loop
      vertex -1.33957 -2.11082 23.4
      vertex -1.59356 -1.92628 23.4
      vertex -1.33957 -2.11082 0
    endloop
  endfacet
  facet normal -0.481754 -0.876307 0
    outer loop
      vertex -1.33957 -2.11082 23.4
      vertex -1.33957 -2.11082 0
      vertex -1.06445 -2.26207 0
    endloop
  endfacet
  facet normal -0.481754 -0.876307 0
    outer loop
      vertex -1.06445 -2.26207 23.4
      vertex -1.33957 -2.11082 23.4
      vertex -1.06445 -2.26207 0
    endloop
  endfacet
  facet normal -0.368122 -0.929777 0
    outer loop
      vertex -1.06445 -2.26207 23.4
      vertex -1.06445 -2.26207 0
      vertex -0.772542 -2.37764 0
    endloop
  endfacet
  facet normal -0.368122 -0.929777 0
    outer loop
      vertex -0.772542 -2.37764 23.4
      vertex -1.06445 -2.26207 23.4
      vertex -0.772542 -2.37764 0
    endloop
  endfacet
  facet normal -0.248691 -0.968583 0
    outer loop
      vertex -0.772542 -2.37764 23.4
      vertex -0.772542 -2.37764 0
      vertex -0.468453 -2.45572 0
    endloop
  endfacet
  facet normal -0.248691 -0.968583 0
    outer loop
      vertex -0.468453 -2.45572 23.4
      vertex -0.772542 -2.37764 23.4
      vertex -0.468453 -2.45572 0
    endloop
  endfacet
  facet normal -0.125334 -0.992115 0
    outer loop
      vertex -0.468453 -2.45572 23.4
      vertex -0.468453 -2.45572 0
      vertex -0.156976 -2.49507 0
    endloop
  endfacet
  facet normal -0.125334 -0.992115 0
    outer loop
      vertex -0.156976 -2.49507 23.4
      vertex -0.468453 -2.45572 23.4
      vertex -0.156976 -2.49507 0
    endloop
  endfacet
  facet normal 0 -1 0
    outer loop
      vertex -0.156976 -2.49507 23.4
      vertex -0.156976 -2.49507 0
      vertex 0.156976 -2.49507 0
    endloop
  endfacet
  facet normal 0 -1 0
    outer loop
      vertex 0.156976 -2.49507 23.4
      vertex -0.156976 -2.49507 23.4
      vertex 0.156976 -2.49507 0
    endloop
  endfacet
  facet normal 0.125334 -0.992115 0
    outer loop
      vertex 0.156976 -2.49507 23.4
      vertex 0.156976 -2.49507 0
      vertex 0.468453 -2.45572 0
    endloop
  endfacet
  facet normal 0.125334 -0.992115 0
    outer loop
      vertex 0.468453 -2.45572 23.4
      vertex 0.156976 -2.49507 23.4
      vertex 0.468453 -2.45572 0
    endloop
  endfacet
  facet normal 0.248691 -0.968583 0
    outer loop
      vertex 0.468453 -2.45572 23.4
      vertex 0.468453 -2.45572 0
      vertex 0.772542 -2.37764 0
    endloop
  endfacet
  facet normal 0.248691 -0.968583 0
    outer loop
      vertex 0.772542 -2.37764 23.4
      vertex 0.468453 -2.45572 23.4
      vertex 0.772542 -2.37764 0
    endloop
  endfacet
  facet normal 0.368122 -0.929777 0
    outer loop
      vertex 0.772542 -2.37764 23.4
      vertex 0.772542 -2.37764 0
      vertex 1.06445 -2.26207 0
    endloop
  endfacet
  facet normal 0.368122 -0.929777 0
    outer loop
      vertex 1.06445 -2.26207 23.4
      vertex 0.772542 -2.37764 23.4
      vertex 1.06445 -2.26207 0
    endloop
  endfacet
  facet normal 0.481754 -0.876307 0
    outer loop
      vertex 1.06445 -2.26207 23.4
      vertex 1.06445 -2.26207 0
      vertex 1.33957 -2.11082 0
    endloop
  endfacet
  facet normal 0.481754 -0.876307 0
    outer loop
      vertex 1.33957 -2.11082 23.4
      vertex 1.06445 -2.26207 23.4
      vertex 1.33957 -2.11082 0
    endloop
  endfacet
  facet normal 0.587786 -0.809017 0
    outer loop
      vertex 1.33957 -2.11082 23.4
      vertex 1.33957 -2.11082 0
      vertex 1.59356 -1.92628 0
    endloop
  endfacet
  facet normal 0.587786 -0.809017 0
    outer loop
      vertex 1.59356 -1.92628 23.4
      vertex 1.33957 -2.11082 23.4
      vertex 1.59356 -1.92628 0
    endloop
  endfacet
  facet normal 0.684546 -0.72897 0
    outer loop
      vertex 1.59356 -1.92628 23.4
      vertex 1.59356 -1.92628 0
      vertex 1.82242 -1.71137 0
    endloop
  endfacet
  facet normal 0.684546 -0.72897 0
    outer loop
      vertex 1.82242 -1.71137 23.4
      vertex 1.59356 -1.92628 23.4
      vertex 1.82242 -1.71137 0
    endloop
  endfacet
  facet normal 0.770515 -0.637422 0
    outer loop
      vertex 1.82242 -1.71137 23.4
      vertex 1.82242 -1.71137 0
      vertex 2.02254 -1.46946 0
    endloop
  endfacet
  facet normal 0.770515 -0.637422 0
    outer loop
      vertex 2.02254 -1.46946 23.4
      vertex 1.82242 -1.71137 23.4
      vertex 2.02254 -1.46946 0
    endloop
  endfacet
  facet normal 0.844327 -0.535829 0
    outer loop
      vertex 2.02254 -1.46946 23.4
      vertex 2.02254 -1.46946 0
      vertex 2.19077 -1.20438 0
    endloop
  endfacet
  facet normal 0.844327 -0.535829 0
    outer loop
      vertex 2.19077 -1.20438 23.4
      vertex 2.02254 -1.46946 23.4
      vertex 2.19077 -1.20438 0
    endloop
  endfacet
  facet normal 0.904828 -0.425778 0
    outer loop
      vertex 2.19077 -1.20438 23.4
      vertex 2.19077 -1.20438 0
      vertex 2.32444 -0.920311 0
    endloop
  endfacet
  facet normal 0.904828 -0.425778 0
    outer loop
      vertex 2.32444 -0.920311 23.4
      vertex 2.19077 -1.20438 23.4
      vertex 2.32444 -0.920311 0
    endloop
  endfacet
  facet normal 0.951056 -0.309019 0
    outer loop
      vertex 2.32444 -0.920311 23.4
      vertex 2.32444 -0.920311 0
      vertex 2.42146 -0.621725 0
    endloop
  endfacet
  facet normal 0.951056 -0.309019 0
    outer loop
      vertex 2.42146 -0.621725 23.4
      vertex 2.32444 -0.920311 23.4
      vertex 2.42146 -0.621725 0
    endloop
  endfacet
  facet normal 0.982287 -0.187382 0
    outer loop
      vertex 2.42146 -0.621725 23.4
      vertex 2.42146 -0.621725 0
      vertex 2.48029 -0.313333 0
    endloop
  endfacet
  facet normal 0.982287 -0.187382 0
    outer loop
      vertex 2.48029 -0.313333 23.4
      vertex 2.42146 -0.621725 23.4
      vertex 2.48029 -0.313333 0
    endloop
  endfacet
  facet normal 0.998027 -0.0627898 0
    outer loop
      vertex 2.48029 -0.313333 23.4
      vertex 2.48029 -0.313333 0
      vertex 2.5 0 0
    endloop
  endfacet
  facet normal 0.998027 -0.0627898 0
    outer loop
      vertex 2.5 0 23.4
      vertex 2.48029 -0.313333 23.4
      vertex 2.5 0 0
    endloop
  endfacet
  facet normal 0.998027 0.0627898 0
    outer loop
      vertex 2.5 0 0
      vertex 2.48029 0.313333 0
      vertex 2.48029 0.313333 23.4
    endloop
  endfacet
  facet normal 0.998027 0.0627898 0
    outer loop
      vertex 2.5 0 23.4
      vertex 2.5 0 0
      vertex 2.48029 0.313333 23.4
    endloop
  endfacet
  facet normal 0.982287 0.187382 0
    outer loop
      vertex 2.48029 0.313333 0
      vertex 2.42146 0.621725 0
      vertex 2.42146 0.621725 23.4
    endloop
  endfacet
  facet normal 0.982287 0.187382 0
    outer loop
      vertex 2.48029 0.313333 23.4
      vertex 2.48029 0.313333 0
      vertex 2.42146 0.621725 23.4
    endloop
  endfacet
  facet normal 0.951056 0.309019 0
    outer loop
      vertex 2.42146 0.621725 0
      vertex 2.32444 0.920311 0
      vertex 2.32444 0.920311 23.4
    endloop
  endfacet
  facet normal 0.951056 0.309019 0
    outer loop
      vertex 2.42146 0.621725 23.4
      vertex 2.42146 0.621725 0
      vertex 2.32444 0.920311 23.4
    endloop
  endfacet
  facet normal 0.904828 0.425778 0
    outer loop
      vertex 2.32444 0.920311 0
      vertex 2.19077 1.20438 0
      vertex 2.19077 1.20438 23.4
    endloop
  endfacet
  facet normal 0.904828 0.425778 0
    outer loop
      vertex 2.32444 0.920311 23.4
      vertex 2.32444 0.920311 0
      vertex 2.19077 1.20438 23.4
    endloop
  endfacet
  facet normal 0.844327 0.535829 0
    outer loop
      vertex 2.19077 1.20438 0
      vertex 2.02254 1.46946 0
      vertex 2.02254 1.46946 23.4
    endloop
  endfacet
  facet normal 0.844327 0.535829 0
    outer loop
      vertex 2.19077 1.20438 23.4
      vertex 2.19077 1.20438 0
      vertex 2.02254 1.46946 23.4
    endloop
  endfacet
  facet normal 0.770515 0.637422 0
    outer loop
      vertex 2.02254 1.46946 0
      vertex 1.82242 1.71137 0
      vertex 1.82242 1.71137 23.4
    endloop
  endfacet
  facet normal 0.770515 0.637422 0
    outer loop
      vertex 2.02254 1.46946 23.4
      vertex 2.02254 1.46946 0
      vertex 1.82242 1.71137 23.4
    endloop
  endfacet
  facet normal 0.684546 0.72897 0
    outer loop
      vertex 1.59356 1.92628 0
      vertex 1.59356 1.92628 23.4
      vertex 1.82242 1.71137 0
    endloop
  endfacet
  facet normal 0.684546 0.72897 0
    outer loop
      vertex 1.82242 1.71137 0
      vertex 1.59356 1.92628 23.4
      vertex 1.82242 1.71137 23.4
    endloop
  endfacet
  facet normal 0.587786 0.809017 0
    outer loop
      vertex 1.33957 2.11082 0
      vertex 1.33957 2.11082 23.4
      vertex 1.59356 1.92628 0
    endloop
  endfacet
  facet normal 0.587786 0.809017 0
    outer loop
      vertex 1.59356 1.92628 0
      vertex 1.33957 2.11082 23.4
      vertex 1.59356 1.92628 23.4
    endloop
  endfacet
  facet normal 0.481754 0.876307 0
    outer loop
      vertex 1.06445 2.26207 0
      vertex 1.06445 2.26207 23.4
      vertex 1.33957 2.11082 0
    endloop
  endfacet
  facet normal 0.481754 0.876307 0
    outer loop
      vertex 1.33957 2.11082 0
      vertex 1.06445 2.26207 23.4
      vertex 1.33957 2.11082 23.4
    endloop
  endfacet
  facet normal 0.368122 0.929777 0
    outer loop
      vertex 0.772542 2.37764 0
      vertex 0.772542 2.37764 23.4
      vertex 1.06445 2.26207 0
    endloop
  endfacet
  facet normal 0.368122 0.929777 0
    outer loop
      vertex 1.06445 2.26207 0
      vertex 0.772542 2.37764 23.4
      vertex 1.06445 2.26207 23.4
    endloop
  endfacet
  facet normal 0.248691 0.968583 0
    outer loop
      vertex 0.468453 2.45572 0
      vertex 0.468453 2.45572 23.4
      vertex 0.772542 2.37764 0
    endloop
  endfacet
  facet normal 0.248691 0.968583 0
    outer loop
      vertex 0.772542 2.37764 0
      vertex 0.468453 2.45572 23.4
      vertex 0.772542 2.37764 23.4
    endloop
  endfacet
  facet normal 0.125334 0.992115 0
    outer loop
      vertex 0.156976 2.49507 0
      vertex 0.156976 2.49507 23.4
      vertex 0.468453 2.45572 0
    endloop
  endfacet
  facet normal 0.125334 0.992115 0
    outer loop
      vertex 0.468453 2.45572 0
      vertex 0.156976 2.49507 23.4
      vertex 0.468453 2.45572 23.4
    endloop
  endfacet
  facet normal 0 1 0
    outer loop
      vertex -0.156976 2.49507 0
      vertex -0.156976 2.49507 23.4
      vertex 0.156976 2.49507 0
    endloop
  endfacet
  facet normal 0 1 0
    outer loop
      vertex 0.156976 2.49507 0
      vertex -0.156976 2.49507 23.4
      vertex 0.156976 2.49507 23.4
    endloop
  endfacet
  facet normal -0.125334 0.992115 0
    outer loop
      vertex -0.468453 2.45572 0
      vertex -0.468453 2.45572 23.4
      vertex -0.156976 2.49507 0
    endloop
  endfacet
  facet normal -0.125334 0.992115 0
    outer loop
      vertex -0.156976 2.49507 0
      vertex -0.468453 2.45572 23.4
      vertex -0.156976 2.49507 23.4
    endloop
  endfacet
  facet normal -0.248691 0.968583 0
    outer loop
      vertex -0.772542 2.37764 0
      vertex -0.772542 2.37764 23.4
      vertex -0.468453 2.45572 0
    endloop
  endfacet
  facet normal -0.248691 0.968583 0
    outer loop
      vertex -0.468453 2.45572 0
      vertex -0.772542 2.37764 23.4
      vertex -0.468453 2.45572 23.4
    endloop
  endfacet
  facet normal -0.368122 0.929777 0
    outer loop
      vertex -1.06445 2.26207 0
      vertex -1.06445 2.26207 23.4
      vertex -0.772542 2.37764 0
    endloop
  endfacet
  facet normal -0.368122 0.929777 0
    outer loop
      vertex -0.772542 2.37764 0
      vertex -1.06445 2.26207 23.4
      vertex -0.772542 2.37764 23.4
    endloop
  endfacet
  facet normal -0.481754 0.876307 0
    outer loop
      vertex -1.33957 2.11082 0
      vertex -1.33957 2.11082 23.4
      vertex -1.06445 2.26207 0
    endloop
  endfacet
  facet normal -0.481754 0.876307 0
    outer loop
      vertex -1.06445 2.26207 0
      vertex -1.33957 2.11082 23.4
      vertex -1.06445 2.26207 23.4
    endloop
  endfacet
  facet normal -0.587786 0.809017 0
    outer loop
      vertex -1.59356 1.92628 0
      vertex -1.59356 1.92628 23.4
      vertex -1.33957 2.11082 0
    endloop
  endfacet
  facet normal -0.587786 0.809017 0
    outer loop
      vertex -1.33957 2.11082 0
      vertex -1.59356 1.92628 23.4
      vertex -1.33957 2.11082 23.4
    endloop
  endfacet
  facet normal -0.684546 0.72897 0
    outer loop
      vertex -1.82242 1.71137 0
      vertex -1.82242 1.71137 23.4
      vertex -1.59356 1.92628 0
    endloop
  endfacet
  facet normal -0.684546 0.72897 0
    outer loop
      vertex -1.59356 1.92628 0
      vertex -1.82242 1.71137 23.4
      vertex -1.59356 1.92628 23.4
    endloop
  endfacet
  facet normal -0.770515 0.637422 0
    outer loop
      vertex -2.02254 1.46946 0
      vertex -2.02254 1.46946 23.4
      vertex -1.82242 1.71137 0
    endloop
  endfacet
  facet normal -0.770515 0.637422 0
    outer loop
      vertex -1.82242 1.71137 0
      vertex -2.02254 1.46946 23.4
      vertex -1.82242 1.71137 23.4
    endloop
  endfacet
  facet normal -0.844327 0.535829 0
    outer loop
      vertex -2.19077 1.20438 0
      vertex -2.19077 1.20438 23.4
      vertex -2.02254 1.46946 0
    endloop
  endfacet
  facet normal -0.844327 0.535829 0
    outer loop
      vertex -2.02254 1.46946 0
      vertex -2.19077 1.20438 23.4
      vertex -2.02254 1.46946 23.4
    endloop
  endfacet
  facet normal -0.904828 0.425778 0
    outer loop
      vertex -2.32444 0.920311 0
      vertex -2.32444 0.920311 23.4
      vertex -2.19077 1.20438 0
    endloop
  endfacet
  facet normal -0.904828 0.425778 0
    outer loop
      vertex -2.19077 1.20438 0
      vertex -2.32444 0.920311 23.4
      vertex -2.19077 1.20438 23.4
    endloop
  endfacet
  facet normal -0.951056 0.309019 0
    outer loop
      vertex -2.42146 0.621725 0
      vertex -2.42146 0.621725 23.4
      vertex -2.32444 0.920311 0
    endloop
  endfacet
  facet normal -0.951056 0.309019 0
    outer loop
      vertex -2.32444 0.920311 0
      vertex -2.42146 0.621725 23.4
      vertex -2.32444 0.920311 23.4
    endloop
  endfacet
  facet normal -0.982287 0.187382 0
    outer loop
      vertex -2.48029 0.313333 0
      vertex -2.48029 0.313333 23.4
      vertex -2.42146 0.621725 0
    endloop
  endfacet
  facet normal -0.982287 0.187382 0
    outer loop
      vertex -2.42146 0.621725 0
      vertex -2.48029 0.313333 23.4
      vertex -2.42146 0.621725 23.4
    endloop
  endfacet
  facet normal 0.998027 0.0627907 0
    outer loop
      vertex -1.5 0 23.4
      vertex -1.48817 -0.188 23.4
      vertex -1.48817 -0.188 0
    endloop
  endfacet
  facet normal 0.998027 0.0627907 0
    outer loop
      vertex -1.5 0 0
      vertex -1.5 0 23.4
      vertex -1.48817 -0.188 0
    endloop
  endfacet
  facet normal 0.998027 -0.0627907 0
    outer loop
      vertex -1.48817 0.188 0
      vertex -1.48817 0.188 23.4
      vertex -1.5 0 23.4
    endloop
  endfacet
  facet normal 0.998027 -0.0627907 0
    outer loop
      vertex -1.5 0 0
      vertex -1.48817 0.188 0
      vertex -1.5 0 23.4
    endloop
  endfacet
  facet normal 0.982288 -0.18738 0
    outer loop
      vertex -1.45287 0.373035 0
      vertex -1.45287 0.373035 23.4
      vertex -1.48817 0.188 23.4
    endloop
  endfacet
  facet normal 0.982288 -0.18738 0
    outer loop
      vertex -1.48817 0.188 0
      vertex -1.45287 0.373035 0
      vertex -1.48817 0.188 23.4
    endloop
  endfacet
  facet normal 0.951057 -0.309017 0
    outer loop
      vertex -1.39467 0.552187 0
      vertex -1.39467 0.552187 23.4
      vertex -1.45287 0.373035 23.4
    endloop
  endfacet
  facet normal 0.951057 -0.309017 0
    outer loop
      vertex -1.45287 0.373035 0
      vertex -1.39467 0.552187 0
      vertex -1.45287 0.373035 23.4
    endloop
  endfacet
  facet normal 0.904827 -0.42578 0
    outer loop
      vertex -1.31446 0.722631 0
      vertex -1.31446 0.722631 23.4
      vertex -1.39467 0.552187 23.4
    endloop
  endfacet
  facet normal 0.904827 -0.42578 0
    outer loop
      vertex -1.39467 0.552187 0
      vertex -1.31446 0.722631 0
      vertex -1.39467 0.552187 23.4
    endloop
  endfacet
  facet normal 0.844326 -0.535829 0
    outer loop
      vertex -1.21353 0.881678 0
      vertex -1.21353 0.881678 23.4
      vertex -1.31446 0.722631 23.4
    endloop
  endfacet
  facet normal 0.844326 -0.535829 0
    outer loop
      vertex -1.31446 0.722631 0
      vertex -1.21353 0.881678 0
      vertex -1.31446 0.722631 23.4
    endloop
  endfacet
  facet normal 0.770515 -0.637422 0
    outer loop
      vertex -1.09345 1.02682 0
      vertex -1.09345 1.02682 23.4
      vertex -1.21353 0.881678 23.4
    endloop
  endfacet
  facet normal 0.770515 -0.637422 0
    outer loop
      vertex -1.21353 0.881678 0
      vertex -1.09345 1.02682 0
      vertex -1.21353 0.881678 23.4
    endloop
  endfacet
  facet normal 0.684546 -0.728969 0
    outer loop
      vertex -0.956136 1.15577 0
      vertex -0.956136 1.15577 23.4
      vertex -1.09345 1.02682 23.4
    endloop
  endfacet
  facet normal 0.684546 -0.728969 0
    outer loop
      vertex -1.09345 1.02682 0
      vertex -0.956136 1.15577 0
      vertex -1.09345 1.02682 23.4
    endloop
  endfacet
  facet normal 0.587785 -0.809017 0
    outer loop
      vertex -0.80374 1.26649 0
      vertex -0.80374 1.26649 23.4
      vertex -0.956136 1.15577 23.4
    endloop
  endfacet
  facet normal 0.587785 -0.809017 0
    outer loop
      vertex -0.956136 1.15577 0
      vertex -0.80374 1.26649 0
      vertex -0.956136 1.15577 23.4
    endloop
  endfacet
  facet normal 0.481756 -0.876306 0
    outer loop
      vertex -0.638669 1.35724 0
      vertex -0.638669 1.35724 23.4
      vertex -0.80374 1.26649 23.4
    endloop
  endfacet
  facet normal 0.481756 -0.876306 0
    outer loop
      vertex -0.80374 1.26649 0
      vertex -0.638669 1.35724 0
      vertex -0.80374 1.26649 23.4
    endloop
  endfacet
  facet normal 0.368123 -0.929777 0
    outer loop
      vertex -0.463525 1.42659 0
      vertex -0.463525 1.42659 23.4
      vertex -0.638669 1.35724 23.4
    endloop
  endfacet
  facet normal 0.368123 -0.929777 0
    outer loop
      vertex -0.638669 1.35724 0
      vertex -0.463525 1.42659 0
      vertex -0.638669 1.35724 23.4
    endloop
  endfacet
  facet normal 0.24869 -0.968583 0
    outer loop
      vertex -0.281072 1.47343 0
      vertex -0.281072 1.47343 23.4
      vertex -0.463525 1.42659 23.4
    endloop
  endfacet
  facet normal 0.24869 -0.968583 0
    outer loop
      vertex -0.463525 1.42659 0
      vertex -0.281072 1.47343 0
      vertex -0.463525 1.42659 23.4
    endloop
  endfacet
  facet normal 0.125332 -0.992115 0
    outer loop
      vertex -0.094186 1.49704 0
      vertex -0.094186 1.49704 23.4
      vertex -0.281072 1.47343 23.4
    endloop
  endfacet
  facet normal 0.125332 -0.992115 0
    outer loop
      vertex -0.281072 1.47343 0
      vertex -0.094186 1.49704 0
      vertex -0.281072 1.47343 23.4
    endloop
  endfacet
  facet normal 0 -1 0
    outer loop
      vertex 0.094186 1.49704 0
      vertex 0.094186 1.49704 23.4
      vertex -0.094186 1.49704 23.4
    endloop
  endfacet
  facet normal 0 -1 0
    outer loop
      vertex -0.094186 1.49704 0
      vertex 0.094186 1.49704 0
      vertex -0.094186 1.49704 23.4
    endloop
  endfacet
  facet normal -0.125332 -0.992115 0
    outer loop
      vertex 0.281072 1.47343 0
      vertex 0.281072 1.47343 23.4
      vertex 0.094186 1.49704 23.4
    endloop
  endfacet
  facet normal -0.125332 -0.992115 0
    outer loop
      vertex 0.094186 1.49704 0
      vertex 0.281072 1.47343 0
      vertex 0.094186 1.49704 23.4
    endloop
  endfacet
  facet normal -0.24869 -0.968583 0
    outer loop
      vertex 0.463525 1.42659 0
      vertex 0.463525 1.42659 23.4
      vertex 0.281072 1.47343 23.4
    endloop
  endfacet
  facet normal -0.24869 -0.968583 0
    outer loop
      vertex 0.281072 1.47343 0
      vertex 0.463525 1.42659 0
      vertex 0.281072 1.47343 23.4
    endloop
  endfacet
  facet normal -0.368123 -0.929777 0
    outer loop
      vertex 0.638669 1.35724 0
      vertex 0.638669 1.35724 23.4
      vertex 0.463525 1.42659 23.4
    endloop
  endfacet
  facet normal -0.368123 -0.929777 0
    outer loop
      vertex 0.463525 1.42659 0
      vertex 0.638669 1.35724 0
      vertex 0.463525 1.42659 23.4
    endloop
  endfacet
  facet normal -0.481756 -0.876306 0
    outer loop
      vertex 0.80374 1.26649 0
      vertex 0.80374 1.26649 23.4
      vertex 0.638669 1.35724 23.4
    endloop
  endfacet
  facet normal -0.481756 -0.876306 0
    outer loop
      vertex 0.638669 1.35724 0
      vertex 0.80374 1.26649 0
      vertex 0.638669 1.35724 23.4
    endloop
  endfacet
  facet normal -0.587785 -0.809017 0
    outer loop
      vertex 0.956136 1.15577 0
      vertex 0.956136 1.15577 23.4
      vertex 0.80374 1.26649 23.4
    endloop
  endfacet
  facet normal -0.587785 -0.809017 0
    outer loop
      vertex 0.80374 1.26649 0
      vertex 0.956136 1.15577 0
      vertex 0.80374 1.26649 23.4
    endloop
  endfacet
  facet normal -0.684546 -0.728969 0
    outer loop
      vertex 1.09345 1.02682 0
      vertex 1.09345 1.02682 23.4
      vertex 0.956136 1.15577 23.4
    endloop
  endfacet
  facet normal -0.684546 -0.728969 0
    outer loop
      vertex 0.956136 1.15577 0
      vertex 1.09345 1.02682 0
      vertex 0.956136 1.15577 23.4
    endloop
  endfacet
  facet normal -0.770515 -0.637422 0
    outer loop
      vertex 1.21353 0.881678 23.4
      vertex 1.09345 1.02682 23.4
      vertex 1.21353 0.881678 0
    endloop
  endfacet
  facet normal -0.770515 -0.637422 0
    outer loop
      vertex 1.21353 0.881678 0
      vertex 1.09345 1.02682 23.4
      vertex 1.09345 1.02682 0
    endloop
  endfacet
  facet normal -0.844326 -0.535829 0
    outer loop
      vertex 1.31446 0.722631 23.4
      vertex 1.21353 0.881678 23.4
      vertex 1.31446 0.722631 0
    endloop
  endfacet
  facet normal -0.844326 -0.535829 0
    outer loop
      vertex 1.31446 0.722631 0
      vertex 1.21353 0.881678 23.4
      vertex 1.21353 0.881678 0
    endloop
  endfacet
  facet normal -0.904827 -0.42578 0
    outer loop
      vertex 1.39467 0.552187 23.4
      vertex 1.31446 0.722631 23.4
      vertex 1.39467 0.552187 0
    endloop
  endfacet
  facet normal -0.904827 -0.42578 0
    outer loop
      vertex 1.39467 0.552187 0
      vertex 1.31446 0.722631 23.4
      vertex 1.31446 0.722631 0
    endloop
  endfacet
  facet normal -0.951057 -0.309017 0
    outer loop
      vertex 1.45287 0.373035 23.4
      vertex 1.39467 0.552187 23.4
      vertex 1.45287 0.373035 0
    endloop
  endfacet
  facet normal -0.951057 -0.309017 0
    outer loop
      vertex 1.45287 0.373035 0
      vertex 1.39467 0.552187 23.4
      vertex 1.39467 0.552187 0
    endloop
  endfacet
  facet normal -0.982288 -0.18738 0
    outer loop
      vertex 1.48817 0.188 23.4
      vertex 1.45287 0.373035 23.4
      vertex 1.48817 0.188 0
    endloop
  endfacet
  facet normal -0.982288 -0.18738 0
    outer loop
      vertex 1.48817 0.188 0
      vertex 1.45287 0.373035 23.4
      vertex 1.45287 0.373035 0
    endloop
  endfacet
  facet normal -0.998027 -0.0627907 0
    outer loop
      vertex 1.5 0 23.4
      vertex 1.48817 0.188 23.4
      vertex 1.5 0 0
    endloop
  endfacet
  facet normal -0.998027 -0.0627907 0
    outer loop
      vertex 1.5 0 0
      vertex 1.48817 0.188 23.4
      vertex 1.48817 0.188 0
    endloop
  endfacet
  facet normal -0.998027 0.0627907 0
    outer loop
      vertex 1.5 0 23.4
      vertex 1.5 0 0
      vertex 1.48817 -0.188 23.4
    endloop
  endfacet
  facet normal -0.998027 0.0627907 0
    outer loop
      vertex 1.48817 -0.188 23.4
      vertex 1.5 0 0
      vertex 1.48817 -0.188 0
    endloop
  endfacet
  facet normal -0.982288 0.18738 0
    outer loop
      vertex 1.48817 -0.188 23.4
      vertex 1.48817 -0.188 0
      vertex 1.45287 -0.373035 23.4
    endloop
  endfacet
  facet normal -0.982288 0.18738 0
    outer loop
      vertex 1.45287 -0.373035 23.4
      vertex 1.48817 -0.188 0
      vertex 1.45287 -0.373035 0
    endloop
  endfacet
  facet normal -0.951057 0.309017 0
    outer loop
      vertex 1.45287 -0.373035 23.4
      vertex 1.45287 -0.373035 0
      vertex 1.39467 -0.552187 23.4
    endloop
  endfacet
  facet normal -0.951057 0.309017 0
    outer loop
      vertex 1.39467 -0.552187 23.4
      vertex 1.45287 -0.373035 0
      vertex 1.39467 -0.552187 0
    endloop
  endfacet
  facet normal -0.904827 0.42578 0
    outer loop
      vertex 1.39467 -0.552187 23.4
      vertex 1.39467 -0.552187 0
      vertex 1.31446 -0.722631 23.4
    endloop
  endfacet
  facet normal -0.904827 0.42578 0
    outer loop
      vertex 1.31446 -0.722631 23.4
      vertex 1.39467 -0.552187 0
      vertex 1.31446 -0.722631 0
    endloop
  endfacet
  facet normal -0.844326 0.535829 0
    outer loop
      vertex 1.31446 -0.722631 23.4
      vertex 1.31446 -0.722631 0
      vertex 1.21353 -0.881678 23.4
    endloop
  endfacet
  facet normal -0.844326 0.535829 0
    outer loop
      vertex 1.21353 -0.881678 23.4
      vertex 1.31446 -0.722631 0
      vertex 1.21353 -0.881678 0
    endloop
  endfacet
  facet normal -0.770515 0.637422 0
    outer loop
      vertex 1.21353 -0.881678 23.4
      vertex 1.21353 -0.881678 0
      vertex 1.09345 -1.02682 23.4
    endloop
  endfacet
  facet normal -0.770515 0.637422 0
    outer loop
      vertex 1.09345 -1.02682 23.4
      vertex 1.21353 -0.881678 0
      vertex 1.09345 -1.02682 0
    endloop
  endfacet
  facet normal -0.684546 0.728969 0
    outer loop
      vertex 1.09345 -1.02682 23.4
      vertex 1.09345 -1.02682 0
      vertex 0.956136 -1.15577 23.4
    endloop
  endfacet
  facet normal -0.684546 0.728969 0
    outer loop
      vertex 0.956136 -1.15577 23.4
      vertex 1.09345 -1.02682 0
      vertex 0.956136 -1.15577 0
    endloop
  endfacet
  facet normal -0.587785 0.809017 0
    outer loop
      vertex 0.956136 -1.15577 23.4
      vertex 0.956136 -1.15577 0
      vertex 0.80374 -1.26649 23.4
    endloop
  endfacet
  facet normal -0.587785 0.809017 0
    outer loop
      vertex 0.80374 -1.26649 23.4
      vertex 0.956136 -1.15577 0
      vertex 0.80374 -1.26649 0
    endloop
  endfacet
  facet normal -0.481756 0.876306 0
    outer loop
      vertex 0.80374 -1.26649 23.4
      vertex 0.80374 -1.26649 0
      vertex 0.638669 -1.35724 23.4
    endloop
  endfacet
  facet normal -0.481756 0.876306 0
    outer loop
      vertex 0.638669 -1.35724 23.4
      vertex 0.80374 -1.26649 0
      vertex 0.638669 -1.35724 0
    endloop
  endfacet
  facet normal -0.368123 0.929777 0
    outer loop
      vertex 0.638669 -1.35724 23.4
      vertex 0.638669 -1.35724 0
      vertex 0.463525 -1.42659 23.4
    endloop
  endfacet
  facet normal -0.368123 0.929777 0
    outer loop
      vertex 0.463525 -1.42659 23.4
      vertex 0.638669 -1.35724 0
      vertex 0.463525 -1.42659 0
    endloop
  endfacet
  facet normal -0.24869 0.968583 0
    outer loop
      vertex 0.463525 -1.42659 23.4
      vertex 0.463525 -1.42659 0
      vertex 0.281072 -1.47343 23.4
    endloop
  endfacet
  facet normal -0.24869 0.968583 0
    outer loop
      vertex 0.281072 -1.47343 23.4
      vertex 0.463525 -1.42659 0
      vertex 0.281072 -1.47343 0
    endloop
  endfacet
  facet normal -0.125332 0.992115 0
    outer loop
      vertex 0.281072 -1.47343 23.4
      vertex 0.281072 -1.47343 0
      vertex 0.094186 -1.49704 23.4
    endloop
  endfacet
  facet normal -0.125332 0.992115 0
    outer loop
      vertex 0.094186 -1.49704 23.4
      vertex 0.281072 -1.47343 0
      vertex 0.094186 -1.49704 0
    endloop
  endfacet
  facet normal 0 1 0
    outer loop
      vertex 0.094186 -1.49704 23.4
      vertex 0.094186 -1.49704 0
      vertex -0.094186 -1.49704 23.4
    endloop
  endfacet
  facet normal 0 1 0
    outer loop
      vertex -0.094186 -1.49704 23.4
      vertex 0.094186 -1.49704 0
      vertex -0.094186 -1.49704 0
    endloop
  endfacet
  facet normal 0.125332 0.992115 0
    outer loop
      vertex -0.094186 -1.49704 23.4
      vertex -0.094186 -1.49704 0
      vertex -0.281072 -1.47343 23.4
    endloop
  endfacet
  facet normal 0.125332 0.992115 0
    outer loop
      vertex -0.281072 -1.47343 23.4
      vertex -0.094186 -1.49704 0
      vertex -0.281072 -1.47343 0
    endloop
  endfacet
  facet normal 0.24869 0.968583 0
    outer loop
      vertex -0.281072 -1.47343 23.4
      vertex -0.281072 -1.47343 0
      vertex -0.463525 -1.42659 23.4
    endloop
  endfacet
  facet normal 0.24869 0.968583 0
    outer loop
      vertex -0.463525 -1.42659 23.4
      vertex -0.281072 -1.47343 0
      vertex -0.463525 -1.42659 0
    endloop
  endfacet
  facet normal 0.368123 0.929777 0
    outer loop
      vertex -0.463525 -1.42659 23.4
      vertex -0.463525 -1.42659 0
      vertex -0.638669 -1.35724 23.4
    endloop
  endfacet
  facet normal 0.368123 0.929777 0
    outer loop
      vertex -0.638669 -1.35724 23.4
      vertex -0.463525 -1.42659 0
      vertex -0.638669 -1.35724 0
    endloop
  endfacet
  facet normal 0.481756 0.876306 0
    outer loop
      vertex -0.638669 -1.35724 23.4
      vertex -0.638669 -1.35724 0
      vertex -0.80374 -1.26649 23.4
    endloop
  endfacet
  facet normal 0.481756 0.876306 0
    outer loop
      vertex -0.80374 -1.26649 23.4
      vertex -0.638669 -1.35724 0
      vertex -0.80374 -1.26649 0
    endloop
  endfacet
  facet normal 0.587785 0.809017 0
    outer loop
      vertex -0.80374 -1.26649 23.4
      vertex -0.80374 -1.26649 0
      vertex -0.956136 -1.15577 23.4
    endloop
  endfacet
  facet normal 0.587785 0.809017 0
    outer loop
      vertex -0.956136 -1.15577 23.4
      vertex -0.80374 -1.26649 0
      vertex -0.956136 -1.15577 0
    endloop
  endfacet
  facet normal 0.684546 0.728969 0
    outer loop
      vertex -0.956136 -1.15577 23.4
      vertex -0.956136 -1.15577 0
      vertex -1.09345 -1.02682 23.4
    endloop
  endfacet
  facet normal 0.684546 0.728969 0
    outer loop
      vertex -1.09345 -1.02682 23.4
      vertex -0.956136 -1.15577 0
      vertex -1.09345 -1.02682 0
    endloop
  endfacet
  facet normal 0.770515 0.637422 0
    outer loop
      vertex -1.21353 -0.881678 23.4
      vertex -1.09345 -1.02682 23.4
      vertex -1.09345 -1.02682 0
    endloop
  endfacet
  facet normal 0.770515 0.637422 0
    outer loop
      vertex -1.21353 -0.881678 0
      vertex -1.21353 -0.881678 23.4
      vertex -1.09345 -1.02682 0
    endloop
  endfacet
  facet normal 0.844326 0.535829 0
    outer loop
      vertex -1.31446 -0.722631 23.4
      vertex -1.21353 -0.881678 23.4
      vertex -1.21353 -0.881678 0
    endloop
  endfacet
  facet normal 0.844326 0.535829 0
    outer loop
      vertex -1.31446 -0.722631 0
      vertex -1.31446 -0.722631 23.4
      vertex -1.21353 -0.881678 0
    endloop
  endfacet
  facet normal 0.904827 0.42578 0
    outer loop
      vertex -1.39467 -0.552187 23.4
      vertex -1.31446 -0.722631 23.4
      vertex -1.31446 -0.722631 0
    endloop
  endfacet
  facet normal 0.904827 0.42578 0
    outer loop
      vertex -1.39467 -0.552187 0
      vertex -1.39467 -0.552187 23.4
      vertex -1.31446 -0.722631 0
    endloop
  endfacet
  facet normal 0.951057 0.309017 0
    outer loop
      vertex -1.45287 -0.373035 23.4
      vertex -1.39467 -0.552187 23.4
      vertex -1.39467 -0.552187 0
    endloop
  endfacet
  facet normal 0.951057 0.309017 0
    outer loop
      vertex -1.45287 -0.373035 0
      vertex -1.45287 -0.373035 23.4
      vertex -1.39467 -0.552187 0
    endloop
  endfacet
  facet normal 0.982288 0.18738 0
    outer loop
      vertex -1.48817 -0.188 23.4
      vertex -1.45287 -0.373035 23.4
      vertex -1.45287 -0.373035 0
    endloop
  endfacet
  facet normal 0.982288 0.18738 0
    outer loop
      vertex -1.48817 -0.188 0
      vertex -1.48817 -0.188 23.4
      vertex -1.45287 -0.373035 0
    endloop
  endfacet
  facet normal 0 0 1
    outer loop
      vertex -2.48029 0.313333 23.4
      vertex -2.5 0 23.4
      vertex -2.48029 -0.313333 23.4
    endloop
  endfacet
  facet normal 0 0 1
    outer loop
      vertex -2.32444 -0.920311 23.4
      vertex -2.48029 0.313333 23.4
      vertex -2.42146 -0.621725 23.4
    endloop
  endfacet
  facet normal 0 0 1
    outer loop
      vertex -2.42146 -0.621725 23.4
      vertex -2.48029 0.313333 23.4
      vertex -2.48029 -0.313333 23.4
    endloop
  endfacet
  facet normal 0 0 1
    outer loop
      vertex -2.19077 -1.20438 23.4
      vertex -2.48029 0.313333 23.4
      vertex -2.32444 -0.920311 23.4
    endloop
  endfacet
  facet normal 0 0 1
    outer loop
      vertex -2.02254 -1.46946 23.4
      vertex -2.48029 0.313333 23.4
      vertex -2.19077 -1.20438 23.4
    endloop
  endfacet
  facet normal 0 0 1
    outer loop
      vertex -1.82242 -1.71137 23.4
      vertex -2.48029 0.313333 23.4
      vertex -2.02254 -1.46946 23.4
    endloop
  endfacet
  facet normal 0 0 1
    outer loop
      vertex -1.59356 -1.92628 23.4
      vertex -2.48029 0.313333 23.4
      vertex -1.82242 -1.71137 23.4
    endloop
  endfacet
  facet normal 0 0 1
    outer loop
      vertex -1.33957 -2.11082 23.4
      vertex -2.48029 0.313333 23.4
      vertex -1.59356 -1.92628 23.4
    endloop
  endfacet
  facet normal 0 0 1
    outer loop
      vertex -1.06445 -2.26207 23.4
      vertex -2.48029 0.313333 23.4
      vertex -1.33957 -2.11082 23.4
    endloop
  endfacet
  facet normal 0 0 1
    outer loop
      vertex -0.772542 -2.37764 23.4
      vertex -2.48029 0.313333 23.4
      vertex -1.06445 -2.26207 23.4
    endloop
  endfacet
  facet normal 0 0 1
    outer loop
      vertex -0.468453 -2.45572 23.4
      vertex -2.48029 0.313333 23.4
      vertex -0.772542 -2.37764 23.4
    endloop
  endfacet
  facet normal 0 0 1
    outer loop
      vertex -0.156976 -2.49507 23.4
      vertex -2.48029 0.313333 23.4
      vertex -0.468453 -2.45572 23.4
    endloop
  endfacet
  facet normal 0 0 1
    outer loop
      vertex 0.156976 -2.49507 23.4
      vertex -2.48029 0.313333 23.4
      vertex -0.156976 -2.49507 23.4
    endloop
  endfacet
  facet normal 0 0 1
    outer loop
      vertex -1.09345 -1.02682 23.4
      vertex -2.48029 0.313333 23.4
      vertex 0.156976 -2.49507 23.4
    endloop
  endfacet
  facet normal 0 0 1
    outer loop
      vertex -1.09345 -1.02682 23.4
      vertex -1.21353 -0.881678 23.4
      vertex -2.48029 0.313333 23.4
    endloop
  endfacet
  facet normal 0 0 1
    outer loop
      vertex -0.638669 -1.35724 23.4
      vertex -0.80374 -1.26649 23.4
      vertex 0.468453 -2.45572 23.4
    endloop
  endfacet
  facet normal 0 0 1
    outer loop
      vertex -0.281072 -1.47343 23.4
      vertex -0.463525 -1.42659 23.4
      vertex 0.772542 -2.37764 23.4
    endloop
  endfacet
  facet normal 0 0 1
    outer loop
      vertex 0.956136 -1.15577 23.4
      vertex 0.80374 -1.26649 23.4
      vertex 1.82242 -1.71137 23.4
    endloop
  endfacet
  facet normal 0 0 1
    outer loop
      vertex -1.45287 0.373035 23.4
      vertex -1.39467 0.552187 23.4
      vertex -2.48029 0.313333 23.4
    endloop
  endfacet
  facet normal 0 0 1
    outer loop
      vertex -1.48817 0.188 23.4
      vertex -1.45287 0.373035 23.4
      vertex -2.48029 0.313333 23.4
    endloop
  endfacet
  facet normal 0 0 1
    outer loop
      vertex 1.09345 1.02682 23.4
      vertex 1.21353 0.881678 23.4
      vertex 2.19077 1.20438 23.4
    endloop
  endfacet
  facet normal 0 0 1
    outer loop
      vertex -0.463525 1.42659 23.4
      vertex -0.281072 1.47343 23.4
      vertex 1.06445 2.26207 23.4
    endloop
  endfacet
  facet normal 0 0 1
    outer loop
      vertex 0.638669 1.35724 23.4
      vertex 0.80374 1.26649 23.4
      vertex 1.82242 1.71137 23.4
    endloop
  endfacet
  facet normal 0 0 1
    outer loop
      vertex 0.468453 2.45572 23.4
      vertex -2.48029 0.313333 23.4
      vertex 0.772542 2.37764 23.4
    endloop
  endfacet
  facet normal 0 0 1
    outer loop
      vertex 0.156976 2.49507 23.4
      vertex -2.48029 0.313333 23.4
      vertex 0.468453 2.45572 23.4
    endloop
  endfacet
  facet normal 0 0 1
    outer loop
      vertex -0.156976 2.49507 23.4
      vertex -2.48029 0.313333 23.4
      vertex 0.156976 2.49507 23.4
    endloop
  endfacet
  facet normal 0 0 1
    outer loop
      vertex -0.468453 2.45572 23.4
      vertex -2.48029 0.313333 23.4
      vertex -0.156976 2.49507 23.4
    endloop
  endfacet
  facet normal 0 0 1
    outer loop
      vertex -0.772542 2.37764 23.4
      vertex -2.48029 0.313333 23.4
      vertex -0.468453 2.45572 23.4
    endloop
  endfacet
  facet normal 0 0 1
    outer loop
      vertex -1.06445 2.26207 23.4
      vertex -2.48029 0.313333 23.4
      vertex -0.772542 2.37764 23.4
    endloop
  endfacet
  facet normal 0 0 1
    outer loop
      vertex -1.33957 2.11082 23.4
      vertex -2.48029 0.313333 23.4
      vertex -1.06445 2.26207 23.4
    endloop
  endfacet
  facet normal 0 0 1
    outer loop
      vertex -1.59356 1.92628 23.4
      vertex -2.48029 0.313333 23.4
      vertex -1.33957 2.11082 23.4
    endloop
  endfacet
  facet normal 0 0 1
    outer loop
      vertex -1.82242 1.71137 23.4
      vertex -2.48029 0.313333 23.4
      vertex -1.59356 1.92628 23.4
    endloop
  endfacet
  facet normal 0 0 1
    outer loop
      vertex -2.02254 1.46946 23.4
      vertex -2.48029 0.313333 23.4
      vertex -1.82242 1.71137 23.4
    endloop
  endfacet
  facet normal 0 0 1
    outer loop
      vertex -2.19077 1.20438 23.4
      vertex -2.48029 0.313333 23.4
      vertex -2.02254 1.46946 23.4
    endloop
  endfacet
  facet normal 0 0 1
    outer loop
      vertex -2.32444 0.920311 23.4
      vertex -2.48029 0.313333 23.4
      vertex -2.19077 1.20438 23.4
    endloop
  endfacet
  facet normal 0 0 1
    outer loop
      vertex -2.42146 0.621725 23.4
      vertex -2.48029 0.313333 23.4
      vertex -2.32444 0.920311 23.4
    endloop
  endfacet
  facet normal 0 0 1
    outer loop
      vertex 0.463525 -1.42659 23.4
      vertex 0.281072 -1.47343 23.4
      vertex 1.33957 -2.11082 23.4
    endloop
  endfacet
  facet normal 0 0 1
    outer loop
      vertex 1.21353 -0.881678 23.4
      vertex 1.09345 -1.02682 23.4
      vertex 2.19077 -1.20438 23.4
    endloop
  endfacet
  facet normal 0 0 1
    outer loop
      vertex 1.09345 -1.02682 23.4
      vertex 0.956136 -1.15577 23.4
      vertex 2.02254 -1.46946 23.4
    endloop
  endfacet
  facet normal 0 0 1
    outer loop
      vertex 1.45287 -0.373035 23.4
      vertex 1.39467 -0.552187 23.4
      vertex 2.42146 -0.621725 23.4
    endloop
  endfacet
  facet normal 0 0 1
    outer loop
      vertex 1.48817 0.188 23.4
      vertex 1.5 0 23.4
      vertex 2.5 0 23.4
    endloop
  endfacet
  facet normal 0 0 1
    outer loop
      vertex 1.21353 0.881678 23.4
      vertex 1.31446 0.722631 23.4
      vertex 2.32444 0.920311 23.4
    endloop
  endfacet
  facet normal 0 0 1
    outer loop
      vertex -1.21353 0.881678 23.4
      vertex -1.09345 1.02682 23.4
      vertex -2.48029 0.313333 23.4
    endloop
  endfacet
  facet normal 0 0 1
    outer loop
      vertex 0.80374 1.26649 23.4
      vertex 0.956136 1.15577 23.4
      vertex 2.02254 1.46946 23.4
    endloop
  endfacet
  facet normal 0 0 1
    outer loop
      vertex -1.09345 1.02682 23.4
      vertex -0.956136 1.15577 23.4
      vertex -2.48029 0.313333 23.4
    endloop
  endfacet
  facet normal 0 0 1
    outer loop
      vertex 0.281072 1.47343 23.4
      vertex 0.463525 1.42659 23.4
      vertex 1.59356 1.92628 23.4
    endloop
  endfacet
  facet normal 0 0 1
    outer loop
      vertex -0.80374 1.26649 23.4
      vertex -0.638669 1.35724 23.4
      vertex 0.772542 2.37764 23.4
    endloop
  endfacet
  facet normal 0 0 1
    outer loop
      vertex -0.094186 1.49704 23.4
      vertex 0.094186 1.49704 23.4
      vertex 1.33957 2.11082 23.4
    endloop
  endfacet
  facet normal 0 0 1
    outer loop
      vertex -0.80374 1.26649 23.4
      vertex -2.48029 0.313333 23.4
      vertex -0.956136 1.15577 23.4
    endloop
  endfacet
  facet normal 0 0 1
    outer loop
      vertex 0.772542 2.37764 23.4
      vertex -2.48029 0.313333 23.4
      vertex -0.80374 1.26649 23.4
    endloop
  endfacet
  facet normal 0 0 1
    outer loop
      vertex 0.772542 2.37764 23.4
      vertex -0.638669 1.35724 23.4
      vertex 1.06445 2.26207 23.4
    endloop
  endfacet
  facet normal 0 0 1
    outer loop
      vertex -0.638669 1.35724 23.4
      vertex -0.463525 1.42659 23.4
      vertex 1.06445 2.26207 23.4
    endloop
  endfacet
  facet normal 0 0 1
    outer loop
      vertex 1.06445 2.26207 23.4
      vertex -0.281072 1.47343 23.4
      vertex 1.33957 2.11082 23.4
    endloop
  endfacet
  facet normal 0 0 1
    outer loop
      vertex -0.281072 1.47343 23.4
      vertex -0.094186 1.49704 23.4
      vertex 1.33957 2.11082 23.4
    endloop
  endfacet
  facet normal 0 0 1
    outer loop
      vertex 1.33957 2.11082 23.4
      vertex 0.094186 1.49704 23.4
      vertex 1.59356 1.92628 23.4
    endloop
  endfacet
  facet normal 0 0 1
    outer loop
      vertex 0.094186 1.49704 23.4
      vertex 0.281072 1.47343 23.4
      vertex 1.59356 1.92628 23.4
    endloop
  endfacet
  facet normal 0 0 1
    outer loop
      vertex 1.59356 1.92628 23.4
      vertex 0.463525 1.42659 23.4
      vertex 1.82242 1.71137 23.4
    endloop
  endfacet
  facet normal 0 0 1
    outer loop
      vertex 0.463525 1.42659 23.4
      vertex 0.638669 1.35724 23.4
      vertex 1.82242 1.71137 23.4
    endloop
  endfacet
  facet normal 0 0 1
    outer loop
      vertex 1.82242 1.71137 23.4
      vertex 0.80374 1.26649 23.4
      vertex 2.02254 1.46946 23.4
    endloop
  endfacet
  facet normal 0 0 1
    outer loop
      vertex -1.31446 0.722631 23.4
      vertex -1.21353 0.881678 23.4
      vertex -2.48029 0.313333 23.4
    endloop
  endfacet
  facet normal 0 0 1
    outer loop
      vertex 2.02254 1.46946 23.4
      vertex 0.956136 1.15577 23.4
      vertex 2.19077 1.20438 23.4
    endloop
  endfacet
  facet normal 0 0 1
    outer loop
      vertex 0.956136 1.15577 23.4
      vertex 1.09345 1.02682 23.4
      vertex 2.19077 1.20438 23.4
    endloop
  endfacet
  facet normal 0 0 1
    outer loop
      vertex 2.19077 1.20438 23.4
      vertex 1.21353 0.881678 23.4
      vertex 2.32444 0.920311 23.4
    endloop
  endfacet
  facet normal 0 0 1
    outer loop
      vertex 1.31446 0.722631 23.4
      vertex 1.39467 0.552187 23.4
      vertex 2.42146 0.621725 23.4
    endloop
  endfacet
  facet normal 0 0 1
    outer loop
      vertex 2.32444 0.920311 23.4
      vertex 1.31446 0.722631 23.4
      vertex 2.42146 0.621725 23.4
    endloop
  endfacet
  facet normal 0 0 1
    outer loop
      vertex -1.39467 0.552187 23.4
      vertex -1.31446 0.722631 23.4
      vertex -2.48029 0.313333 23.4
    endloop
  endfacet
  facet normal 0 0 1
    outer loop
      vertex 2.42146 0.621725 23.4
      vertex 1.39467 0.552187 23.4
      vertex 2.48029 0.313333 23.4
    endloop
  endfacet
  facet normal 0 0 1
    outer loop
      vertex 1.39467 0.552187 23.4
      vertex 1.45287 0.373035 23.4
      vertex 2.48029 0.313333 23.4
    endloop
  endfacet
  facet normal 0 0 1
    outer loop
      vertex 2.48029 0.313333 23.4
      vertex 1.48817 0.188 23.4
      vertex 2.5 0 23.4
    endloop
  endfacet
  facet normal 0 0 1
    outer loop
      vertex 2.5 0 23.4
      vertex 1.5 0 23.4
      vertex 2.48029 -0.313333 23.4
    endloop
  endfacet
  facet normal 0 0 1
    outer loop
      vertex 2.48029 -0.313333 23.4
      vertex 1.48817 -0.188 23.4
      vertex 2.42146 -0.621725 23.4
    endloop
  endfacet
  facet normal 0 0 1
    outer loop
      vertex 1.39467 -0.552187 23.4
      vertex 1.31446 -0.722631 23.4
      vertex 2.32444 -0.920311 23.4
    endloop
  endfacet
  facet normal 0 0 1
    outer loop
      vertex 1.48817 -0.188 23.4
      vertex 1.45287 -0.373035 23.4
      vertex 2.42146 -0.621725 23.4
    endloop
  endfacet
  facet normal 0 0 1
    outer loop
      vertex 1.5 0 23.4
      vertex 1.48817 -0.188 23.4
      vertex 2.48029 -0.313333 23.4
    endloop
  endfacet
  facet normal 0 0 1
    outer loop
      vertex 2.42146 -0.621725 23.4
      vertex 1.39467 -0.552187 23.4
      vertex 2.32444 -0.920311 23.4
    endloop
  endfacet
  facet normal 0 0 1
    outer loop
      vertex 1.45287 0.373035 23.4
      vertex 1.48817 0.188 23.4
      vertex 2.48029 0.313333 23.4
    endloop
  endfacet
  facet normal 0 0 1
    outer loop
      vertex 2.32444 -0.920311 23.4
      vertex 1.31446 -0.722631 23.4
      vertex 2.19077 -1.20438 23.4
    endloop
  endfacet
  facet normal 0 0 1
    outer loop
      vertex 1.31446 -0.722631 23.4
      vertex 1.21353 -0.881678 23.4
      vertex 2.19077 -1.20438 23.4
    endloop
  endfacet
  facet normal 0 0 1
    outer loop
      vertex 2.19077 -1.20438 23.4
      vertex 1.09345 -1.02682 23.4
      vertex 2.02254 -1.46946 23.4
    endloop
  endfacet
  facet normal 0 0 1
    outer loop
      vertex 2.02254 -1.46946 23.4
      vertex 0.956136 -1.15577 23.4
      vertex 1.82242 -1.71137 23.4
    endloop
  endfacet
  facet normal 0 0 1
    outer loop
      vertex 1.82242 -1.71137 23.4
      vertex 0.80374 -1.26649 23.4
      vertex 1.59356 -1.92628 23.4
    endloop
  endfacet
  facet normal 0 0 1
    outer loop
      vertex 0.80374 -1.26649 23.4
      vertex 0.638669 -1.35724 23.4
      vertex 1.59356 -1.92628 23.4
    endloop
  endfacet
  facet normal 0 0 1
    outer loop
      vertex 1.59356 -1.92628 23.4
      vertex 0.463525 -1.42659 23.4
      vertex 1.33957 -2.11082 23.4
    endloop
  endfacet
  facet normal 0 0 1
    outer loop
      vertex 1.33957 -2.11082 23.4
      vertex 0.281072 -1.47343 23.4
      vertex 1.06445 -2.26207 23.4
    endloop
  endfacet
  facet normal 0 0 1
    outer loop
      vertex -1.21353 -0.881678 23.4
      vertex -1.31446 -0.722631 23.4
      vertex -2.48029 0.313333 23.4
    endloop
  endfacet
  facet normal 0 0 1
    outer loop
      vertex 0.281072 -1.47343 23.4
      vertex 0.094186 -1.49704 23.4
      vertex 1.06445 -2.26207 23.4
    endloop
  endfacet
  facet normal 0 0 1
    outer loop
      vertex 1.06445 -2.26207 23.4
      vertex -0.094186 -1.49704 23.4
      vertex 0.772542 -2.37764 23.4
    endloop
  endfacet
  facet normal 0 0 1
    outer loop
      vertex -0.094186 -1.49704 23.4
      vertex -0.281072 -1.47343 23.4
      vertex 0.772542 -2.37764 23.4
    endloop
  endfacet
  facet normal 0 0 1
    outer loop
      vertex 0.772542 -2.37764 23.4
      vertex -0.463525 -1.42659 23.4
      vertex 0.468453 -2.45572 23.4
    endloop
  endfacet
  facet normal 0 0 1
    outer loop
      vertex -0.463525 -1.42659 23.4
      vertex -0.638669 -1.35724 23.4
      vertex 0.468453 -2.45572 23.4
    endloop
  endfacet
  facet normal 0 0 1
    outer loop
      vertex 0.468453 -2.45572 23.4
      vertex -0.80374 -1.26649 23.4
      vertex 0.156976 -2.49507 23.4
    endloop
  endfacet
  facet normal 0 0 1
    outer loop
      vertex -0.80374 -1.26649 23.4
      vertex -0.956136 -1.15577 23.4
      vertex 0.156976 -2.49507 23.4
    endloop
  endfacet
  facet normal 0 0 1
    outer loop
      vertex -0.956136 -1.15577 23.4
      vertex -1.09345 -1.02682 23.4
      vertex 0.156976 -2.49507 23.4
    endloop
  endfacet
  facet normal 0 0 1
    outer loop
      vertex -1.31446 -0.722631 23.4
      vertex -1.39467 -0.552187 23.4
      vertex -2.48029 0.313333 23.4
    endloop
  endfacet
  facet normal 0 0 1
    outer loop
      vertex -1.39467 -0.552187 23.4
      vertex -1.45287 -0.373035 23.4
      vertex -2.48029 0.313333 23.4
    endloop
  endfacet
  facet normal 0 0 1
    outer loop
      vertex 0.638669 -1.35724 23.4
      vertex 0.463525 -1.42659 23.4
      vertex 1.59356 -1.92628 23.4
    endloop
  endfacet
  facet normal 0 0 1
    outer loop
      vertex 0.094186 -1.49704 23.4
      vertex -0.094186 -1.49704 23.4
      vertex 1.06445 -2.26207 23.4
    endloop
  endfacet
  facet normal 0 0 1
    outer loop
      vertex -1.45287 -0.373035 23.4
      vertex -1.48817 -0.188 23.4
      vertex -2.48029 0.313333 23.4
    endloop
  endfacet
  facet normal 0 0 1
    outer loop
      vertex -1.48817 -0.188 23.4
      vertex -1.5 0 23.4
      vertex -2.48029 0.313333 23.4
    endloop
  endfacet
  facet normal 0 0 1
    outer loop
      vertex -1.5 0 23.4
      vertex -1.48817 0.188 23.4
      vertex -2.48029 0.313333 23.4
    endloop
  endfacet
endsolid OpenSCAD_Model
